<svg xmlns="http://www.w3.org/2000/svg" version="1.1" xmlns:xlink="http://www.w3.org/1999/xlink" width="200" height="200"><svg xmlns="http://www.w3.org/2000/svg" version="1.1" xmlns:xlink="http://www.w3.org/1999/xlink" viewBox="0 0 200 200"><rect width="200" height="200" fill="url('#gradient')"></rect><defs><linearGradient id="SvgjsLinearGradient1001" gradientTransform="rotate(178 0.5 0.5)"><stop offset="0%" stop-color="#ceaa96"></stop><stop offset="100%" stop-color="#8fa983"></stop></linearGradient></defs><g><g fill="#445272" transform="matrix(9.124752475247524,0,0,9.124752475247524,-3.9276449683869146,149.456080910711)" stroke="#c8512e" stroke-width="2"><path d="M0.54-5.24L0.54-5.36Q0.54-6.96 1.06-8.19Q1.59-9.42 2.58-10.09Q3.56-10.76 4.87-10.76L4.87-10.76Q6.52-10.76 7.45-9.65L7.45-9.65L7.57-10.57L10.56-10.57L10.56-0.40Q10.56 1.00 9.91 2.03Q9.26 3.06 8.03 3.61Q6.80 4.16 5.18 4.16L5.18 4.16Q4.01 4.16 2.92 3.72Q1.84 3.28 1.26 2.58L1.26 2.58L2.64 0.64Q3.55 1.73 5.06 1.73L5.06 1.73Q7.25 1.73 7.25-0.52L7.25-0.52L7.25-0.85Q6.30 0.20 4.85 0.20L4.85 0.20Q2.92 0.20 1.73-1.28Q0.54-2.76 0.54-5.24L0.54-5.24ZM3.84-5.16L3.84-5.16Q3.84-3.86 4.33-3.10Q4.81-2.34 5.69-2.34L5.69-2.34Q6.76-2.34 7.25-3.06L7.25-3.06L7.25-7.50Q6.77-8.22 5.71-8.22L5.71-8.22Q4.83-8.22 4.34-7.44Q3.84-6.65 3.84-5.16ZM22.24-5.36L22.24-5.20Q22.24-2.60 21.16-1.20Q20.09 0.20 18.13 0.20L18.13 0.20Q16.52 0.20 15.54-1.08L15.54-1.08L15.40 0L12.45 0L12.45-15L15.74-15L15.74-9.72Q16.66-10.76 18.12-10.76L18.12-10.76Q20.09-10.76 21.16-9.35Q22.24-7.93 22.24-5.36L22.24-5.36ZM18.94-5.40L18.94-5.40Q18.94-6.92 18.53-7.57Q18.13-8.22 17.29-8.22L17.29-8.22Q16.17-8.22 15.74-7.37L15.74-7.37L15.74-3.17Q16.16-2.33 17.30-2.33L17.30-2.33Q18.47-2.33 18.78-3.47L18.78-3.47Q18.94-4.02 18.94-5.40Z"></path></g></g></svg><style>@media (prefers-color-scheme: light) { :root { filter: none; } }
@media (prefers-color-scheme: dark) { :root { filter: none; } }
</style></svg>